<?xml version="1.0" encoding="UTF-8"?>
<!DOCTYPE svg PUBLIC "-//W3C//DTD SVG 1.1//EN" "http://www.w3.org/Graphics/SVG/1.1/DTD/svg11.dtd">
<!-- Creator: CorelDRAW X8 -->
<svg xmlns="http://www.w3.org/2000/svg" xml:space="preserve" width="720px" height="590px" version="1.1" style="shape-rendering:geometricPrecision; text-rendering:geometricPrecision; image-rendering:optimizeQuality; fill-rule:evenodd; clip-rule:evenodd"
viewBox="0 0 72000 59000"
 xmlns:xlink="http://www.w3.org/1999/xlink"
 enable-background="new 0 0 800 800">
 <defs>
  <style type="text/css">
   <![CDATA[
    .str0 {stroke:#373435;stroke-width:236.221;stroke-opacity:0.149020}
    .fil7 {fill:#0288D1}
    .fil5 {fill:#039BE5}
    .fil11 {fill:#1E7BCA}
    .fil1 {fill:#3C3C3C}
    .fil2 {fill:#424242}
    .fil9 {fill:#616161}
    .fil6 {fill:#70B773}
    .fil8 {fill:#DBD1C8}
    .fil4 {fill:#EDE8E4}
    .fil3 {fill:#FAFAFA}
    .fil0 {fill:white}
    .fil12 {fill:#373435;fill-opacity:0.149020}
    .fil10 {fill:#424242;fill-opacity:0.200000}
   ]]>
  </style>
 </defs>
 <g id="Camada_x0020_1">
  <metadata id="CorelCorpID_0Corel-Layer"/>
  <g id="CirculoBranco.svg">
   <g>
    <circle class="fil0" cx="34653" cy="29687" r="21446"/>
    <g>
     <g>
      <path class="fil0" d="M5829 30034c-91,-7869 3011,-15747 9225,-21503 6214,-5757 14306,-8248 22145,-7556l210 -194c-546,-52 -1095,-90 -1647,-111 -7751,-296 -15153,2443 -20843,7714 -5691,5271 -8988,12443 -9284,20194 -21,552 -25,1102 -16,1650l210 -194z"/>
      <path class="fil0" d="M59547 15126l155 -144c-1053,-1786 -2304,-3471 -3746,-5028 -2052,-2215 -4393,-4066 -6942,-5520l-163 151c2529,1428 4882,3263 6958,5504 1455,1570 2699,3261 3738,5037z"/>
      <path class="fil0" d="M63255 26095c1107,8904 -1934,18199 -9004,24749 -11666,10807 -29949,10108 -40755,-1558 -2077,-2242 -3727,-4728 -4957,-7358l-163 150c1255,2653 2922,5128 4973,7343 5271,5691 12443,8988 20193,9284 7752,296 15154,-2443 20844,-7715 5690,-5270 8987,-12442 9284,-20193 63,-1648 -13,-3280 -219,-4883l-196 181z"/>
     </g>
     <g>
      <path class="fil0" d="M13691 18197c881,-1607 1961,-3138 3244,-4555 8667,-9570 23376,-10484 33156,-2202l128 -141c-4681,-3969 -10599,-5981 -16758,-5676 -6428,318 -12347,3121 -16667,7891 -1308,1443 -2420,3015 -3328,4683l225 0z"/>
      <path class="fil0" d="M10800 28310l-203 0c-47,850 -52,1707 -9,2569 305,6159 2892,11850 7303,16116l129 -142c-5163,-4998 -7601,-11824 -7220,-18543z"/>
      <path class="fil0" d="M55843 18197c-242,-446 -499,-885 -770,-1315l-140 155c238,381 463,769 677,1160l233 0 0 0z"/>
      <path class="fil0" d="M58707 28310l-204 0c357,6176 -1662,12486 -6133,17423 -7326,8090 -18969,9992 -28303,5385l-140 155c3652,1822 7729,2687 11917,2479 6428,-318 12347,-3121 16668,-7891 4320,-4770 6524,-10937 6205,-17365 -3,-62 -7,-124 -10,-186z"/>
     </g>
     <g>
      <path class="fil0" d="M44407 53633c351,-146 704,-303 1048,-465l-81 -173c-342,161 -692,317 -1041,462l74 176z"/>
      <path class="fil0" d="M13736 45071l-153 114c227,305 465,609 705,903l148 -121c-239,-291 -474,-594 -700,-896z"/>
      <path class="fil0" d="M12460 43190l-163 100c199,323 408,647 622,961l158 -107c-212,-312 -420,-633 -617,-954z"/>
      <path class="fil0" d="M9693 36967l-183 54c107,366 224,734 347,1093l180 -61c-122,-357 -238,-723 -344,-1086z"/>
      <path class="fil0" d="M16763 48461l-130 139c277,260 564,518 853,766l124 -144c-287,-247 -572,-503 -847,-761z"/>
      <path class="fil0" d="M11355 41203l-171 85c170,340 350,682 535,1015l167 -93c-184,-330 -363,-669 -531,-1007z"/>
      <path class="fil0" d="M10430 39122l-178 70c139,355 288,710 442,1058l175 -77c-153,-345 -301,-699 -439,-1051z"/>
      <path class="fil0" d="M42253 54422c363,-115 728,-239 1085,-370l-65 -179c-355,130 -718,253 -1078,367l58 182z"/>
      <path class="fil0" d="M37753 55226l25 189c378,-50 759,-108 1134,-174l-33 -188c-372,65 -751,124 -1126,173z"/>
      <path class="fil0" d="M39996 54831l41 186c372,-83 747,-174 1115,-273l-50 -184c-365,98 -737,189 -1106,271z"/>
      <path class="fil0" d="M18490 49945l-118 150c300,235 608,467 918,688l111 -155c-307,-220 -614,-450 -911,-683z"/>
      <path class="fil0" d="M20341 51272l-104 160c319,208 647,411 975,605l97 -164c-325,-193 -651,-395 -968,-601z"/>
      <path class="fil0" d="M25073 53702c-240,-93 -479,-189 -714,-289l-74 176c268,114 542,223 816,328l-28 -215z"/>
      <path class="fil0" d="M22302 52431l-90 168c337,180 682,354 1026,518l82 -172c-341,-163 -684,-336 -1018,-514z"/>
      <path class="fil0" d="M15174 46832l-142 127c253,284 517,566 782,838l137 -133c-264,-270 -525,-550 -777,-832z"/>
      <path class="fil0" d="M14499 13362l-147 -121c-243,294 -481,598 -709,902l153 115c226,-302 463,-603 703,-896z"/>
      <path class="fil0" d="M17558 9969c-289,247 -577,504 -855,764l130 140c277,-259 562,-514 849,-759l-124 -145z"/>
      <path class="fil0" d="M15883 11534c-266,272 -530,553 -784,836l142 128c252,-282 514,-561 778,-830l-136 -134z"/>
      <path class="fil0" d="M19200 8678c-255,184 -508,373 -755,566l117 150c218,-170 442,-337 666,-501l-28 -215z"/>
      <path class="fil0" d="M29884 4353l-33 -188c-338,60 -679,128 -1016,202l25 190c340,-75 683,-144 1024,-204z"/>
      <path class="fil0" d="M35495 55424l25 189c371,-16 748,-41 1118,-73l-17 -190c-372,32 -752,57 -1126,74z"/>
      <path class="fil0" d="M12975 15076c-214,315 -425,638 -626,962l162 101c199,-322 409,-643 622,-955l-158 -108z"/>
      <path class="fil0" d="M11765 17026c-186,332 -367,673 -539,1014l170 86c171,-338 351,-677 536,-1006l-167 -94z"/>
      <path class="fil0" d="M9226 23414c-93,370 -178,747 -254,1121l187 38c75,-371 160,-746 252,-1113l-185 -46z"/>
      <path class="fil0" d="M10731 19076c-156,348 -307,704 -448,1058l177 71c140,-352 290,-705 445,-1050l-174 -79z"/>
      <path class="fil0" d="M9882 21211c-125,360 -244,728 -352,1094l182 54c108,-363 226,-728 351,-1086l-181 -62z"/>
      <path class="fil0" d="M59253 37123c110,-366 212,-739 305,-1108l-185 -47c-92,367 -194,737 -303,1100l183 55z"/>
      <path class="fil0" d="M57933 19254l175 -77c-155,-348 -319,-697 -489,-1039l-170 86c168,338 331,685 484,1030z"/>
      <path class="fil0" d="M54373 13456l148 -121c-241,-295 -491,-589 -743,-872l-143 127c251,281 499,573 738,866z"/>
      <path class="fil0" d="M46482 52656c336,-177 672,-364 1000,-556l-96 -164c-326,190 -660,376 -993,551l89 169z"/>
      <path class="fil0" d="M55730 15280l158 -107c-214,-315 -436,-629 -663,-934l-153 114c225,303 446,614 658,927z"/>
      <path class="fil0" d="M34472 3953l1 -191c-381,-1 -766,7 -1147,23l8 191c378,-16 761,-24 1138,-23z"/>
      <path class="fil0" d="M31010 4179l55 -7c376,-49 757,-91 1133,-123l-17 -190c-378,32 -762,74 -1141,123l-55 8 25 189z"/>
      <path class="fil0" d="M36747 4057l17 -190c-379,-34 -764,-60 -1145,-78l-8 191c377,17 759,43 1136,77z"/>
      <path class="fil0" d="M43398 5575l67 -178c-358,-134 -723,-262 -1085,-379l-59 182c359,116 722,242 1077,375z"/>
      <path class="fil0" d="M41228 4872l51 -184c-367,-101 -742,-196 -1115,-281l-42 186c370,84 742,178 1106,279z"/>
      <path class="fil0" d="M39003 4364l34 -188c-375,-68 -756,-128 -1133,-180l-26 189c374,51 753,111 1125,179z"/>
      <path class="fil0" d="M56919 17216l166 -93c-184,-333 -378,-665 -577,-988l-162 100c197,320 389,650 573,981z"/>
      <path class="fil0" d="M53674 47051c254,-283 506,-575 747,-869l-147 -121c-240,291 -490,582 -743,863l143 127z"/>
      <path class="fil0" d="M55131 45280c228,-304 453,-617 668,-932l-157 -108c-214,312 -437,624 -664,926l153 114z"/>
      <path class="fil0" d="M56427 43387c201,-323 398,-656 585,-988l-167 -93c-185,329 -380,659 -580,980l162 101z"/>
      <path class="fil0" d="M48457 51501c319,-206 638,-422 948,-643l-110 -155c-309,219 -625,433 -941,637l103 161z"/>
      <path class="fil0" d="M57552 41386c172,-340 339,-688 496,-1036l-174 -78c-156,345 -321,691 -492,1028l170 86z"/>
      <path class="fil0" d="M50324 50174c299,-233 598,-477 888,-724l-124 -145c-288,245 -584,487 -882,719l118 150z"/>
      <path class="fil0" d="M52067 48687c279,-260 555,-529 821,-800l-136 -134c-264,270 -539,537 -815,794l130 140z"/>
      <path class="fil0" d="M59843 25794l188 -29c-58,-378 -124,-758 -198,-1130l-187 37c73,369 139,747 197,1122z"/>
      <path class="fil0" d="M58497 39293c141,-354 277,-716 402,-1076l-180 -63c-125,358 -259,717 -399,1068l177 71z"/>
      <path class="fil0" d="M58762 21375l181 -62c-123,-360 -256,-723 -394,-1077l-178 69c138,352 270,712 391,1070z"/>
      <path class="fil0" d="M59400 23560l185 -45c-90,-369 -190,-742 -296,-1108l-184 54c106,363 205,733 295,1099z"/>
      <path class="fil0" d="M60279 28046c-24,-378 -57,-763 -99,-1143l-189 21c40,377 74,759 98,1134l190 -12z"/>
      <path class="fil0" d="M59813 34893c76,-373 145,-752 205,-1129l-189 -29c-59,373 -127,750 -203,1120l187 38z"/>
      <path class="fil0" d="M60172 32627c42,-378 77,-762 103,-1142l-191 -13c-25,377 -59,758 -102,1134l190 21z"/>
      <path class="fil0" d="M60327 30339c9,-381 10,-767 2,-1147l-191 4c8,377 7,760 -2,1138l191 5z"/>
     </g>
    </g>
   </g>
  </g>
  <g id="_77115-OF8EWG-704.svg">
   <g id="BACKGROUND">
   </g>
   <g id="DESIGNED_BY_FREEPIK">
   </g>
   <g id="OBJECTS">
    <g>
     <path class="fil1" d="M71557 45690l0 -2056 -1406 0 -6555 -8687c-372,-492 -1780,-881 -3156,-881l-49166 0c-1376,0 -2785,389 -3156,881l-6556 8687 -1408 0 0 2151 2 0c47,575 963,994 2407,994l66588 0c1522,0 2458,-465 2406,-1089z"/>
     <path class="fil2" d="M8118 32785l-7775 10303c-628,832 357,1528 2220,1528l66588 0c1863,0 2848,-696 2220,-1528l-7775 -10303c-372,-492 -1780,-881 -3156,-881l-49166 0c-1376,-1 -2785,389 -3156,881z"/>
     <g>
      <polygon class="fil3" points="64276,43981 7438,43981 14386,32258 57328,32258 "/>
      <path class="fil4" d="M21758 35536l-841 2357 9162 0 400 -2898 -7107 0c-223,272 -868,489 -1614,541z"/>
      <path class="fil4" d="M30857 32258l-7929 0 -704 1972c688,49 1178,255 1227,520l7062 0 344 -2492z"/>
      <path class="fil5" d="M22786 34872c77,-230 -358,-415 -969,-415 -610,0 -1180,185 -1271,415 -91,232 341,423 965,423 625,0 1197,-191 1275,-423z"/>
      <path class="fil6" d="M25574 33840c42,-154 -268,-279 -691,-279 -424,0 -807,125 -855,279 -49,156 260,284 690,284 430,0 814,-128 856,-284z"/>
      <polygon class="fil4" points="20101,38180 10876,38180 10032,39603 19569,39603 "/>
      <polygon class="fil4" points="31168,34750 41035,34750 40702,32258 31470,32258 "/>
      <polygon class="fil6" points="41494,38180 20814,38180 19305,42410 42059,42410 "/>
      <polygon class="fil5" points="53840,32258 47467,32258 49273,37893 56637,37893 "/>
      <path class="fil4" d="M12763 34995l-1717 2898 9163 0 881 -2357c-709,-52 -1195,-269 -1220,-541l-7107 0 0 0z"/>
      <path class="fil4" d="M22315 32258l-7929 0 -1477 2492 7062 0c242,-265 883,-471 1607,-520l737 -1972z"/>
      <polygon class="fil4" points="41068,34995 31138,34995 30787,37893 41455,37893 "/>
      <polygon class="fil4" points="19179,42763 18744,43981 42270,43981 42107,42763 "/>
      <polygon class="fil4" points="42207,38180 43080,43981 50413,43981 48652,38180 "/>
      <polygon class="fil4" points="9848,39915 7438,43981 17933,43981 19453,39915 "/>
      <polygon class="fil5" points="49365,38180 51224,43981 59659,43981 56779,38180 "/>
      <polygon class="fil4" points="60470,43981 64276,43981 62995,41821 59361,41821 "/>
      <polygon class="fil4" points="59187,41482 62794,41482 60838,38180 57492,38180 "/>
      <polygon class="fil4" points="57345,37893 60667,37893 57328,32258 54453,32258 "/>
      <polygon class="fil4" points="47611,34750 46855,32258 41315,32258 41690,34750 "/>
      <polygon class="fil4" points="47686,34995 41727,34995 42163,37893 48565,37893 "/>
      <polygon class="fil7" points="57174,38976 49620,38976 49365,38180 56779,38180 "/>
      <g>
       <path class="fil6" d="M12977 36263c-182,0 -363,58 -404,129 -42,71 74,129 258,129 183,0 365,-58 405,-129 40,-71 -76,-129 -259,-129z"/>
       <path class="fil6" d="M14352 36263c-182,0 -362,58 -400,129 -39,71 79,129 262,129 184,0 364,-58 401,-129 38,-71 -80,-129 -263,-129z"/>
       <path class="fil6" d="M15727 36263c-182,0 -360,58 -396,129 -36,71 83,129 267,129 184,0 361,-58 397,-129 35,-71 -85,-129 -268,-129z"/>
       <path class="fil6" d="M17102 36263c-183,0 -358,58 -391,129 -34,71 87,129 271,129 184,0 359,-58 392,-129 32,-71 -89,-129 -272,-129z"/>
       <path class="fil6" d="M18477 36263c-183,0 -356,58 -387,129 -32,71 92,129 276,129 184,0 357,-58 387,-129 30,-71 -94,-129 -276,-129z"/>
       <path class="fil6" d="M19852 36263c-183,0 -354,58 -383,129 -29,71 96,129 280,129 184,0 356,-58 383,-129 28,-71 -98,-129 -280,-129z"/>
      </g>
      <polygon class="fil6" points="57345,37893 60667,37893 59128,35295 56011,35295 "/>
      <polygon class="fil8" points="10886,39317 11384,38452 19330,38452 18993,39317 "/>
      <polygon class="fil8" points="36302,34523 36279,32458 40153,32458 40397,34523 "/>
      <polygon class="fil8" points="31476,37628 31729,35227 34579,35227 34501,37628 "/>
      <polygon class="fil8" points="26457,37628 26999,35227 29828,35227 29459,37628 "/>
      <polygon class="fil8" points="43780,43634 43245,40422 48632,40422 49557,43634 "/>
      <polygon class="fil8" points="43109,39603 42953,38669 48128,38669 48397,39603 "/>
      <polygon class="fil8" points="8395,43634 10371,40209 18645,40209 17311,43634 "/>
      <polygon class="fil8" points="61043,43634 60253,42142 62457,42142 63319,43634 "/>
      <polygon class="fil8" points="59739,41170 58301,38452 60329,38452 61897,41170 "/>
      <polygon class="fil8" points="56274,34620 55130,32458 56872,32458 58118,34620 "/>
      <polygon class="fil8" points="42263,34523 42087,33462 46629,33462 46935,34523 "/>
      <polygon class="fil8" points="42780,37628 42475,35794 47300,35794 47828,37628 "/>
      <g>
       <polygon class="fil8" points="11860,37628 19651,37628 19974,36799 12338,36799 "/>
       <polygon class="fil8" points="18719,35227 13244,35227 12803,35993 18385,35993 "/>
      </g>
      <polygon class="fil8" points="24318,35227 22226,35993 22045,36521 25611,36521 25939,35227 "/>
      <polygon class="fil8" points="17707,33911 18403,32458 21665,32458 21099,33911 "/>
      <polygon class="fil8" points="16859,32458 14842,32458 13651,34523 15782,34523 "/>
      <polygon class="fil8" points="23431,32458 23188,33171 26836,33171 26507,34523 29936,34523 30254,32458 "/>
      <polygon class="fil8" points="21668,37628 21950,36799 25541,36799 25331,37628 "/>
     </g>
     <path class="fil9" d="M63135 36521c1087,0 2218,347 2532,782 322,445 -328,813 -1458,813 -1129,0 -2275,-368 -2553,-813 -272,-435 392,-782 1479,-782z"/>
     <path class="fil9" d="M8165 36069l-1762 2547c-120,174 127,316 552,316 425,0 862,-142 976,-316l1670 -2547c100,-153 -139,-275 -532,-275 -394,0 -799,122 -904,275z"/>
     <g>
      <path class="fil10" d="M40700 34232c0,-872 -2683,-1579 -5993,-1579 -3309,0 -5992,707 -5992,1579 0,872 2683,1580 5992,1580 3310,0 5993,-708 5993,-1580z"/>
     </g>
    </g>
   </g>
  </g>
  <path class="fil11" d="M35003 14548c3350,0 6065,2716 6065,6065 0,3350 -5703,13578 -6065,13571 -209,-4 -2207,-3437 -3854,-6973 -1197,-2571 -2208,-5196 -2211,-6598 -8,-3330 2716,-6065 6065,-6065zm4496 6076c14,-2449 -1923,-4590 -4268,-4586 -2344,5 -4842,1933 -4819,4586 24,2654 2457,4601 4810,4593 2354,-8 4264,-2143 4277,-4593z"/>
  <path class="fil11" d="M45907 29128c1960,0 3550,1590 3550,3550 0,1961 -3338,7948 -3550,7943 -123,-2 -1292,-2011 -2256,-4081 -701,-1505 -1293,-3041 -1294,-3862 -5,-1949 1589,-3550 3550,-3550zm2632 3557c7,-1434 -1126,-2687 -2499,-2685 -1372,3 -2834,1131 -2820,2685 13,1553 1437,2692 2815,2688 1378,-5 2495,-1255 2504,-2688z"/>
  <path class="fil11" d="M17596 24320c2158,0 3908,1749 3908,3907 0,2158 -3675,8748 -3908,8743 -135,-3 -1422,-2214 -2483,-4492 -771,-1656 -1422,-3348 -1425,-4251 -4,-2145 1750,-3907 3908,-3907zm2897 3914c8,-1578 -1239,-2957 -2750,-2954 -1510,3 -3120,1245 -3105,2954 15,1710 1583,2964 3099,2959 1517,-5 2747,-1381 2756,-2959z"/>
  <path class="fil12 str0" d="M45907 39811c1993,0 3609,363 3609,810 0,448 -1616,810 -3609,810 -1993,0 -3609,-362 -3609,-810 0,-447 1616,-810 3609,-810z"/>
  <path class="fil12 str0" d="M17596 36060c2239,0 4054,408 4054,910 0,503 -1815,910 -4054,910 -2239,0 -4054,-407 -4054,-910 0,-502 1815,-910 4054,-910z"/>
 </g>
</svg>
