<?xml version="1.0" encoding="UTF-8"?>
<!DOCTYPE svg PUBLIC "-//W3C//DTD SVG 1.1//EN" "http://www.w3.org/Graphics/SVG/1.1/DTD/svg11.dtd">
<!-- Creator: CorelDRAW X8 -->
<svg xmlns="http://www.w3.org/2000/svg" xml:space="preserve" width="34px" height="53px" version="1.1" style="shape-rendering:geometricPrecision; text-rendering:geometricPrecision; image-rendering:optimizeQuality; fill-rule:evenodd; clip-rule:evenodd"
viewBox="0 0 3400 5300"
 xmlns:xlink="http://www.w3.org/1999/xlink">
 <defs>
  <style type="text/css">
   <![CDATA[
    .fil0 {fill:#1E7BCA}
   ]]>
  </style>
 </defs>
 <g id="Camada_x0020_1">
  <metadata id="CorelCorpID_0Corel-Layer"/>
  <path class="fil0" d="M1707 681c694,0 1256,563 1256,1257 0,693 -1181,2812 -1256,2811 -44,-1 -458,-712 -799,-1445 -248,-532 -457,-1076 -458,-1366 -1,-690 563,-1257 1257,-1257zm931 1259c3,-508 -398,-951 -884,-950 -486,1 -1003,400 -998,950 4,549 508,953 996,951 488,-1 883,-444 886,-951z"/>
 </g>
</svg>
